<?xml version="1.0" standalone="no"?>
<!DOCTYPE svg PUBLIC "-//W3C//DTD SVG 1.1//EN" "http://www.w3.org/Graphics/SVG/1.1/DTD/svg11.dtd">
<svg width="3911px" height="3468px" version="1.1" xmlns="http://www.w3.org/2000/svg" xmlns:xlink="http://www.w3.org/1999/xlink" xml:space="preserve" style="fill-rule:evenodd;clip-rule:evenodd;stroke-linecap:round;stroke-linejoin:round;stroke-miterlimit:1.41421;">
    <g>
        <g>
            <path d="M532.875,2292.92C518.433,2281.93 388.222,2303.5 375.067,2292.92C364.017,2284.03 324.863,2127.01 337.348,2102.46C353.994,2069.72 495.388,2047.4 495.388,2047.4C495.388,2047.4 490.462,774.185 1549.93,782.495C2192.62,787.536 2395.23,1546.12 2417.7,1569.4C2436.84,1589.24 2562.45,1512.85 2573.3,1551.22C2584.16,1589.6 2525.16,1773.79 2525.16,1773.79C3106.39,1720.75 2737.29,726.155 3135.94,676.129C3285.65,657.343 3727.46,641.9 3821.81,670.929C3901.17,695.345 3909.54,1073.89 3911.39,1147.6C3914.1,1255.45 3404.54,1236.81 3263.22,1130.08C3219.53,1644.75 3669.34,1513.49 3696.19,1577.2C3728.7,1654.37 3703.72,1694.11 3620.04,1730.02C3535.49,1766.31 3362.85,1670 3250.71,1733.77C3123.25,1806.25 3133.8,1988.37 2493.74,2022.65L2444.11,2209.33C2524.39,2227.94 2737.67,2141.54 2839.52,2105.74C2957.54,2064.26 3137.69,2031.91 3213.54,2074.87C3289.39,2117.82 3389.73,2351.35 3367.36,2439.26C3345,2527.18 3251.44,2672.63 3173.9,2712.45C3099.77,2750.51 2876.76,2831.64 2755.73,2762.6C2632.08,2692.06 2892.07,2496.31 2684.04,2460.49C2600.21,2446.06 2312.66,2381.77 2223.2,2439.57C2053.45,2549.23 1959.94,3036.06 2024.78,3265.75C2033.33,3296.03 2159.8,3344.68 2057.76,3452.69C2030.1,3481.96 1600.25,3463.47 1591.06,3455.13C1469.35,3344.7 1430.18,3130.22 1469.45,2997.96C1511.25,2857.17 1876.75,2540.91 1883.96,2442.87C1886.52,2408.05 1730.77,2411.52 1609.56,2411.68C1467.3,2411.87 1282.73,2458.33 1229.14,2564.22C1196.98,2627.76 1357.4,2761.48 1348.54,2899.52C1343.62,2976.02 1370.14,3055.16 1334.18,3105.19C1298.23,3155.22 880.638,3136.92 845.149,3118.12C785.635,3086.6 888.943,2879.78 893.423,2833.35C904.873,2714.7 945.75,2541.15 834.875,2586.04C473.777,2732.22 487.518,3193.42 573.578,3273.07C592.736,3290.79 679.485,3312.7 625.593,3419.15C599.083,3471.51 99.6449,3462.75 64.7056,3423.12C64.7056,3423.12 -32.5908,3144.66 11.435,3029.22C94.7212,2810.82 497.761,2623.79 565.107,2498.52C631.8,2374.47 544.537,2301.78 532.875,2292.92Z" style="fill:white;"/>
        </g>
        <g>
            <g>
                <path d="M752.842,1278.16C718.188,1310.3 733.85,1621.93 754.57,1649C777.808,1679.36 839.824,1642.64 873.755,1679.07C917.716,1726.26 1211.37,2248.16 1315.95,2250.27C1598.71,2255.98 2548.2,847.436 3551.71,13.3356C3102.37,-169.104 1450.24,1580.82 1330.63,1572.43C1282.06,1569.03 1179.27,1318.92 1117.14,1273.1C1069.94,1238.31 788.001,1245.55 752.842,1278.16Z" style="fill:rgb(74,191,30);"/>
            </g>
        </g>
    </g>
</svg>
