<?xml version="1.0" standalone="no"?>
<!DOCTYPE svg PUBLIC "-//W3C//DTD SVG 1.1//EN" "http://www.w3.org/Graphics/SVG/1.1/DTD/svg11.dtd">
<svg width="3909px" height="3339px" version="1.1" xmlns="http://www.w3.org/2000/svg" xmlns:xlink="http://www.w3.org/1999/xlink" xml:space="preserve" style="fill-rule:evenodd;clip-rule:evenodd;stroke-linecap:round;stroke-linejoin:round;stroke-miterlimit:1.41421;">
    <g>
        <g>
            <g>
                <path d="M334.8,1939.21C321.537,1929.12 100.677,1960.04 88.5969,1950.32C78.4484,1942.15 42.0526,1592.53 53.5183,1569.98C68.8058,1539.91 264.461,1530.66 264.461,1530.66C264.461,1530.66 -106.602,206.681 1233.22,168.995C2038.03,146.357 2091.66,929.204 2118.88,995.876C2128.46,1019.31 2379.3,925.807 2403.46,1008.66C2413.71,1043.82 2348.93,1295.17 2348.93,1295.17C2953.06,1221.64 2421.26,149.943 2896.2,84.4841C3033.47,65.565 3641.83,-25.2115 3776.47,6.76043C3874.25,29.9819 3907.29,614.795 3908.99,682.503C3911.48,781.561 3474.49,798.732 3242.45,642.192C3092.5,1224.1 3642.38,974.957 3667.04,1033.48C3696.9,1104.35 3597.88,1500.09 3523.35,1538.02C3350.23,1626.14 3049.17,1383.01 2946.19,1441.58C2829.13,1508.15 2695.95,1714.53 2275.53,1705.88L2211.85,1932.42C2285.57,1949.51 2562.66,1921.36 2654.05,1882.93C3000.96,1737.03 3221.56,2116.75 3207.7,2370.4C3190.37,2687.49 2781.42,2951.79 2527,2790.82C2324.05,2662.41 2655.88,2541.99 2453.81,2405.03C2389.14,2361.2 2083.83,2264.58 2001.67,2317.66C1845.78,2418.39 1745.74,2778.37 2033.51,2991.92C2056.72,3009.14 2092.7,3208.95 1998.99,3308.15C1973.58,3335.04 1437.26,3317.93 1428.83,3310.27C1317.05,3208.83 1204.69,2895.81 1240.76,2774.32C1279.15,2645.01 1583.26,2492.07 1517.91,2082.11C1514.52,2060.83 1310.92,1996.53 1099.87,2066.4C996.801,2100.52 1062.3,2376.68 881.844,2472.71C566.006,2640.79 607.279,2978.2 728.93,3051.03C749.498,3063.34 755.884,3210.1 706.391,3307.87C682.045,3355.96 96.243,3342.96 64.1556,3306.56C64.1556,3306.56 -30.3745,2946.02 10.0575,2839.98C86.5452,2639.38 393.519,2477.09 474.888,2280.61C524.384,2161.09 345.51,1947.35 334.8,1939.21Z" style="fill:rgb(47,149,233);"/>
            </g>
        </g>
    </g>
</svg>
